<?xml version="1.0" ?><svg style="enable-background:new 0 0 24 24;" version="1.1" viewBox="0 0 24 24" xml:space="preserve" xmlns="http://www.w3.org/2000/svg" xmlns:xlink="http://www.w3.org/1999/xlink"><g id="info"/><g id="icons"><path d="M20,4c0-2.2-1.8-4-4-4H8C5.8,0,4,1.8,4,4v16c0,2.2,1.8,4,4,4h8c2.2,0,4-1.8,4-4V4z M13,22h-2c-0.6,0-1-0.4-1-1   c0-0.6,0.4-1,1-1h2c0.6,0,1,0.4,1,1C14,21.6,13.6,22,13,22z M18,17c0,0.6-0.4,1-1,1H7c-0.6,0-1-0.4-1-1V5c0-0.6,0.4-1,1-1h10   c0.6,0,1,0.4,1,1V17z" id="mobile"/></g></svg>