<?xml version="1.0" ?><!DOCTYPE svg  PUBLIC '-//W3C//DTD SVG 1.1//EN'  'http://www.w3.org/Graphics/SVG/1.1/DTD/svg11.dtd'><svg height="1681px" style="enable-background:new 0 0 1707 1681;" version="1.1" viewBox="0 0 1707 1681" width="1707px" xml:space="preserve" xmlns="http://www.w3.org/2000/svg" xmlns:xlink="http://www.w3.org/1999/xlink"><g id="imac"><path d="M1552.246,0H156.902C71.283,0,0,67.579,0,153.749v1023.563c0,41.82,16.968,81.819,46.301,110.912   C75.448,1317.131,115.25,1334,156.902,1334h426.827c-10.472,149-69.562,237.496-72.426,241.748   c-14.54,20.066-16.393,46.8-5.16,68.905c11.267,22.17,34.269,36.347,59.139,36.347h578.583c24.887,0,47.9-14.662,59.161-36.857   c11.227-22.131,9.346-47.906-5.234-67.967c-2.925-4.326-62.107-93.176-72.605-242.176h427.06   c86.74,0,154.754-71.335,154.754-156.688V153.749C1707,67.579,1638.986,0,1552.246,0z M156.902,132h1395.344   c13.406,0,22.754,8.89,22.754,21.749V862H132V153.749C132,140.215,143.93,132,156.902,132z M1037.738,1549H671.289   c20.223-53,39.712-125,44.84-215h276.658C997.926,1424,1017.464,1496,1037.738,1549z M1552.246,1202H156.902   c-13.404,0-24.902-11.564-24.902-24.688V994h1443v183.313C1575,1189.801,1566.123,1202,1552.246,1202z"/></g><g id="Layer_1"/></svg>